<svg width="36" height="26" viewBox="0 0 36 26" fill="none" xmlns="http://www.w3.org/2000/svg">
<path d="M6.28006 12.7202L0.720059 18.3002C0.340059 18.7002 0.340059 19.3202 0.720059 19.7202L6.28006 25.3002C6.90006 25.9402 7.98006 25.4802 7.98006 24.6002V21.0002L20.0001 21.0002C21.1001 21.0002 22.0001 20.1002 22.0001 19.0002C22.0001 17.9002 21.1001 17.0002 20.0001 17.0002L7.98006 17.0002L7.98006 13.4202C7.98006 12.5202 6.90006 12.0802 6.28006 12.7202ZM35.3001 6.30017L29.7401 0.720176C29.1201 0.0801761 28.0401 0.540176 28.0401 1.42018V5.00017L16.0001 5.00017C14.9001 5.00017 14.0001 5.90017 14.0001 7.00017C14.0001 8.10017 14.9001 9.00017 16.0001 9.00017L28.0201 9.00017L28.0201 12.5802C28.0201 13.4802 29.1001 13.9202 29.7201 13.2802L35.2801 7.70017C35.6801 7.32018 35.6801 6.68017 35.3001 6.30017Z" fill="#333333"/>
</svg>
