<svg width="46" height="56" viewBox="0 0 46 56" fill="none" xmlns="http://www.w3.org/2000/svg">
<path d="M38.2386 41.8029C45.0323 39.1019 46.6158 35.269 41.6907 32.663C37.601 30.5575 30.2024 29.836 23.097 30.7054C22.8274 30.1615 22.3881 29.6306 21.8356 29.1083C17.7984 25.4659 7.59099 23.7505 -3.10415 24.5735C-3.83979 24.6301 -4.57543 24.6867 -5.25448 24.7389C-5.25448 24.7389 -5.25447 24.7389 -5.31106 24.7433C-5.99012 24.7955 -6.66302 24.928 -7.34208 24.9802C-7.45525 24.9889 -7.51184 24.9933 -7.62502 25.002C-8.2979 25.1345 -8.92037 25.1824 -9.59325 25.3148C-9.70643 25.3235 -9.81961 25.3322 -9.87619 25.3366C-10.5491 25.4691 -11.222 25.6015 -11.8948 25.7339C-12.3414 25.849 -12.7375 25.8795 -13.1274 25.9902C-13.9639 26.2159 -14.75 26.357 -15.4733 26.5741C-16.5865 26.9017 -17.6998 27.2294 -18.6937 27.6286C-19.3604 27.8413 -20.0209 28.1341 -20.631 28.3424C-20.9644 28.4488 -21.235 28.6309 -21.5118 28.7329C-22.1157 29.0214 -22.6631 29.3055 -23.1538 29.5853C-23.6446 29.8651 -24.1354 30.1449 -24.6262 30.4247C-25.9792 31.3355 -26.9926 32.2203 -27.6604 33.1591C-27.7612 33.3282 -27.862 33.4973 -27.9629 33.6664C-29.1286 35.531 -28.8612 37.5273 -26.9084 39.2326C-25.929 40.1253 -24.6223 40.8315 -23.0327 41.5159C-22.2096 41.856 -21.3927 42.1158 -20.4626 42.3669C-19.8216 42.5596 -19.1868 42.6721 -18.5458 42.8648C-13.4488 44.0054 -7.04927 44.3197 -0.497404 43.6542C-0.434644 43.7301 -0.434636 43.7301 -0.371877 43.8059C-0.127009 44.0291 0.174453 44.248 0.645672 44.4537C0.940953 44.5923 1.23007 44.6508 1.63853 44.7807C2.91432 45.0859 4.51729 45.2045 6.10793 45.1628C6.33428 45.1454 6.56064 45.128 6.78699 45.1106C8.1451 45.0061 9.49087 44.7412 10.5979 44.3333C10.9879 44.2226 11.315 44.036 11.6484 43.9297C11.812 43.8365 11.919 43.7475 12.0888 43.7345C12.1454 43.7301 12.1958 43.6456 12.1958 43.6456C12.2462 43.561 12.3594 43.5523 12.4098 43.4678C12.4664 43.4634 12.5168 43.3789 12.5734 43.3745C12.63 43.3702 12.6804 43.2856 12.737 43.2812C15.0684 43.9892 17.8906 44.4175 20.9144 44.5075C21.1974 44.4857 21.4865 44.5442 21.7694 44.5224C22.6244 44.5373 23.536 44.5478 24.4414 44.4781C28.3583 44.3381 32.3514 43.7081 35.9175 42.7076C36.3074 42.5969 36.6973 42.4863 37.0811 42.2954C37.1377 42.291 37.1943 42.2866 37.3013 42.1977C37.5153 42.0199 37.8487 41.9136 38.2386 41.8029Z" fill="white" fill-opacity="0.5"/>
<path d="M-11.2509 13.278L-0.992335 14.3345L3.00143 13.1631L7.0879 15.5289L15.8663 18.0789L20.8992 25.7212L28.7434 31.4796L24.3747 40.5481L19.3849 42.5699L12.0999 41.5001L1.08699 43.7281L-4.06052 39.1112L-15.9195 35.5753L-18.9262 28.1546L-19.0697 18.9781L-11.2509 13.278Z" fill="#FFD522"/>
<path d="M-6.12872 23.714L-0.306229 24.4827L8.18977 21.1893L7.08787 15.5289L15.8663 18.0789L15.82 24.9491L8.94206 28.9276L-7.57571 32.6413L-12.4607 29.4075L-6.12872 23.714Z" fill="#FFA300"/>
<path d="M7.08792 15.5289L8.18982 21.1893L-0.306181 24.4827L-6.12867 23.714L-0.992312 14.3345L3.00145 13.1631L7.08792 15.5289Z" fill="#FFE161"/>
<path d="M15.8663 18.0789L20.8992 25.7212L20.4448 33.0547L15.82 24.9491L15.8663 18.0789Z" fill="#FFE161"/>
<path d="M8.94208 28.9276L9.56974 37.4611L-4.06052 39.1112L-7.57568 32.6413L8.94208 28.9276Z" fill="#FFE161"/>
<path d="M8.18979 21.1893L15.82 24.9491L8.94207 28.9276L-0.306213 24.4828L8.18979 21.1893Z" fill="#FFBB24"/>
<path d="M9.56971 37.4611L19.3849 42.5699L12.0999 41.5L1.08697 43.7281L-4.06055 39.1112L9.56971 37.4611Z" fill="#FFBB24"/>
<path opacity="0.7" d="M20.4448 33.0547L24.3747 40.5481L19.385 42.5699L9.56976 37.4611L20.4448 33.0547Z" fill="#FFA300"/>
</svg>
