<svg width="114" height="37" viewBox="0 0 114 37" fill="none" xmlns="http://www.w3.org/2000/svg">
<path d="M107.257 31.4076C114.238 29.2358 116.111 25.5357 111.4 22.5595C107.484 20.1464 100.163 18.8594 93.0113 19.1811C92.7843 18.6181 92.387 18.055 91.8762 17.492C88.1304 13.5505 78.0847 11.057 67.3579 11.057C66.6201 11.057 65.8823 11.057 65.2013 11.057C65.2013 11.057 65.2013 11.057 65.1445 11.057C64.4634 11.057 63.7824 11.1374 63.1013 11.1374C62.9878 11.1374 62.931 11.1374 62.8175 11.1374C62.1365 11.2178 61.5121 11.2178 60.8311 11.2983C60.7176 11.2983 60.6041 11.2983 60.5473 11.2983C59.8662 11.3787 59.1852 11.4592 58.5041 11.5396C58.0501 11.62 57.6528 11.62 57.2555 11.7005C56.4042 11.8613 55.6096 11.9418 54.8718 12.1027C53.7367 12.344 52.6016 12.5853 51.58 12.907C50.8989 13.0679 50.2179 13.3092 49.5935 13.4701C49.253 13.5505 48.9693 13.7114 48.6855 13.7918C48.0612 14.0331 47.4936 14.2745 46.9828 14.5158C46.472 14.7571 45.9612 14.9984 45.4504 15.2397C44.0315 16.0441 42.9532 16.8485 42.2154 17.7333C42.1018 17.8942 41.9883 18.055 41.8748 18.2159C40.5695 19.9855 40.683 21.9964 42.4991 23.8465C43.4072 24.8118 44.6558 25.6161 46.1882 26.4205C46.9828 26.8227 47.7774 27.1444 48.6855 27.4662C49.3098 27.7075 49.9341 27.8684 50.5584 28.1097C55.5529 29.638 61.9094 30.4424 68.4931 30.2815C68.5498 30.3619 68.5498 30.3619 68.6066 30.4424C68.8336 30.6837 69.1174 30.925 69.5714 31.1663C69.8552 31.3272 70.139 31.4076 70.5363 31.5685C71.7849 31.9707 73.374 32.212 74.9632 32.2924C75.1902 32.2924 75.4172 32.2924 75.6442 32.2924C77.0064 32.2924 78.3685 32.1316 79.5036 31.8098C79.9009 31.7294 80.2414 31.5685 80.5819 31.4881C80.7522 31.4076 80.8657 31.3272 81.036 31.3272C81.0927 31.3272 81.1495 31.2468 81.1495 31.2468C81.2062 31.1663 81.3198 31.1663 81.3765 31.0859C81.4333 31.0859 81.49 31.0055 81.5468 31.0055C81.6035 31.0055 81.6603 30.925 81.717 30.925C83.9872 31.8098 86.7683 32.4533 89.7763 32.7751C90.0601 32.7751 90.3438 32.8555 90.6276 32.8555C91.4789 32.9359 92.387 33.0164 93.2951 33.0164C97.2112 33.1773 101.241 32.8555 104.873 32.1315C105.271 32.0511 105.668 31.9707 106.065 31.8098C106.122 31.8098 106.179 31.8098 106.292 31.7294C106.519 31.5685 106.86 31.4881 107.257 31.4076Z" fill="white" fill-opacity="0.5"/>
<path d="M65.2528 6.64255L72.6035 7.9758L75.5531 7.35172L78.3732 9.28758L84.5718 11.6172L87.7821 17.4167L93.1276 22.0118L89.4683 28.3188L85.752 29.5018L80.5497 28.3242L72.4716 29.3213L69.0104 25.7006L60.6416 22.4876L58.8824 16.9609L59.2888 10.325L65.2528 6.64255Z" fill="#FFD522"/>
<path d="M59.2888 10.325L64.3439 13.0186L68.3724 14.4648L63.4826 18.2251L58.8824 16.9609L59.2888 10.325Z" fill="#FFBB24"/>
<path d="M68.3723 14.4648L72.535 15.3437L78.8544 13.4371L78.3731 9.28758L84.5718 11.6172L84.1565 16.5768L78.9677 19.068L66.8311 20.8323L63.4825 18.2251L68.3723 14.4648Z" fill="#FFA300"/>
<path opacity="0.7" d="M58.8824 16.9609L63.4826 18.2251L66.8311 20.8323L69.0104 25.7006L60.6416 22.4876L58.8824 16.9609Z" fill="#FFA300"/>
<path d="M78.3731 9.28758L78.8544 13.4371L72.535 15.3437L68.3723 14.4648L72.6035 7.9758L75.5531 7.35172L78.3731 9.28758Z" fill="#FFE161"/>
<path d="M84.5718 11.6172L87.7821 17.4167L87.0463 22.6882L84.1565 16.5768L84.5718 11.6172Z" fill="#FFE161"/>
<path d="M78.9677 19.068L78.9467 25.2663L69.0103 25.7006L66.8311 20.8323L78.9677 19.068Z" fill="#FFE161"/>
<path d="M78.8544 13.4371L84.1565 16.5768L78.9677 19.068L72.535 15.3437L78.8544 13.4371Z" fill="#FFBB24"/>
<path d="M78.9467 25.2663L85.752 29.5018L80.5497 28.3242L72.4716 29.3213L69.0104 25.7006L78.9467 25.2663Z" fill="#FFBB24"/>
<path opacity="0.7" d="M87.0463 22.6882L89.4682 28.3188L85.752 29.5018L78.9467 25.2663L87.0463 22.6882Z" fill="#FFA300"/>
<path d="M50.8272 29.7407C56.1824 28.5652 57.6192 26.5624 54.0055 24.9515C51.0014 23.6454 51.9858 23.7599 46.5 23.934C68.6009 16.2451 46.8918 14.7388 46.5 14.434C43.6265 12.3006 28.4485 18.7256 20.2198 18.7256C19.6538 18.7256 19.0878 18.7256 18.5653 18.7256C18.5653 18.7256 18.5654 18.7256 18.5218 18.7256C17.9994 18.7256 17.4769 18.7691 16.9544 18.7691C16.8673 18.7691 16.8238 18.7691 16.7367 18.7691C16.2143 18.8126 15.7353 18.8126 15.2129 18.8562C15.1258 18.8562 15.0387 18.8562 14.9952 18.8562C14.4727 18.8997 13.9503 18.9432 13.4278 18.9868C13.0795 19.0303 12.7747 19.0303 12.47 19.0739C11.8169 19.1609 11.2074 19.2045 10.6414 19.2915C9.7706 19.4222 8.89984 19.5528 8.11615 19.7269C7.59369 19.814 7.07123 19.9446 6.59231 20.0317C6.33108 20.0752 6.1134 20.1623 5.89571 20.2058C5.41678 20.3365 4.9814 20.4671 4.58956 20.5977C4.19771 20.7283 3.80586 20.8589 3.41402 20.9895C2.32556 21.4249 1.49833 21.8603 0.932328 22.3392C0.845251 22.4263 0.758185 22.5134 0.671109 22.6004C-0.330272 23.5583 -0.243207 24.6467 1.15002 25.6481C1.84663 26.1706 2.80448 26.606 3.98001 27.0414C4.58955 27.259 5.19909 27.4332 5.89571 27.6073C6.37463 27.738 6.85354 27.825 7.33246 27.9557C11.1638 28.7829 16.0401 29.2183 21.0906 29.1312C21.1341 29.1747 21.1341 29.1747 21.1776 29.2183C21.3518 29.3489 21.5695 29.4795 21.9178 29.6101C22.1355 29.6972 22.3532 29.7407 22.658 29.8278C23.6158 30.0455 24.8349 30.1761 26.0539 30.2196C26.2281 30.2196 26.4023 30.2196 26.5764 30.2196C27.6213 30.2196 28.6662 30.1326 29.537 29.9584C29.8418 29.9149 30.103 29.8278 30.3642 29.7843C30.4948 29.7407 30.5819 29.6972 30.7125 29.6972C30.7561 29.6972 30.7996 29.6537 30.7996 29.6537C30.8431 29.6101 30.9302 29.6101 30.9738 29.5666C31.0173 29.5666 31.0608 29.523 31.1044 29.523C31.1479 29.523 31.1914 29.4795 31.235 29.4795C32.9765 29.9584 35.1099 30.3067 37.4174 30.4809C37.6351 30.4809 37.8528 30.5244 38.0705 30.5244C38.7236 30.568 39.4202 30.6115 40.1168 30.6115C43.1209 30.6986 46.2122 30.5244 48.9986 30.1326C49.3034 30.089 49.6082 30.0455 49.9129 29.9584C49.9565 29.9584 50 29.9584 50.0871 29.9149C50.2612 29.8278 50.5225 29.7843 50.8272 29.7407Z" fill="white" fill-opacity="0.5"/>
<path d="M43.8 11L48.4 12.1L51.2 15.6L49.5 20.6L43.8 22.5L39.8 21.4L36.7 23.4L33 19.6L36.7 14.9L39.8 14L43.8 11Z" fill="#FFD522"/>
<path d="M33 19.6H36.4L37.3 21L36.7 23.4L33 19.6Z" fill="#FFA300"/>
<path d="M37.3 21L40.2 18.9L39.8 21.4L36.7 23.4L37.3 21Z" fill="#FFBB24"/>
<path d="M37.3 21L36.4 19.6L38.4 16.3L41.2 17L42.3 18.6L40.2 18.9L37.3 21Z" fill="#FFE161"/>
<path d="M42.3 18.6L43.8 22.5L49.5 20.6L48.7 17L45.9 15.6L42.3 18.6Z" fill="#FFBB24"/>
<path d="M42.3 18.6L45.9 19.6L48.7 17L45.9 15.6L42.3 18.6Z" fill="#FFA300"/>
<path d="M51.2 15.6L48.7 17L45.9 15.6L48.4 12.1L51.2 15.6Z" fill="#FFE161"/>
<path d="M43.8 11V13.6L41.7 14.9L39.8 14L43.8 11Z" fill="#FFE161"/>
<path d="M43.8 13.6L45.9 15.6L42.3 18.6L41.2 17L41.7 14.9L43.8 13.6Z" fill="#FFBB24"/>
<path d="M36.7 14.9L38.4 16.3L36.4 19.6H33L36.7 14.9Z" fill="#FFBB24"/>
<path d="M26.5 16.0998L22.1 14.7998L12.9 15.3998L8.9 19.3998L8 22.4998L9.8 24.5998H16.4L25.6 19.3998L26.5 16.0998Z" fill="#FFD522"/>
<path d="M26.5 16.0998L21.2 17.7998L20 22.5998L25.6 19.3998L26.5 16.0998Z" fill="#FFA300"/>
<path d="M21.2 17.7998L16.3 18.5998L16.5 21.5998L20 22.5998L21.2 17.7998Z" fill="#FFBB24"/>
<path d="M16.5 21.5998L16.4 24.5998H9.79999L11.7 21.6998L16.5 21.5998Z" fill="#FFBB24"/>
<path d="M12.9 15.3998L16.3 18.5998L21.2 17.7998L18.4 14.9998L12.9 15.3998Z" fill="#FFE161"/>
<path d="M12.9 15.3998L11.7 21.6998L8.90002 19.3998L12.9 15.3998Z" fill="#FFBB24"/>
<path d="M11.7 21.6998L8.9 19.3998L8 22.4998L9.8 24.5998L11.7 21.6998Z" fill="#FFE161"/>
</svg>
