<svg width="669" height="148" viewBox="0 0 669 148" fill="none" xmlns="http://www.w3.org/2000/svg">
<g opacity="0.1">
<path d="M668.158 148C668.158 148 624.566 104.577 611.053 101.298C566.047 90.4425 551.347 73.8764 551.347 73.8764C536.647 76.4772 501.14 96.7184 481.238 95.7007C461.336 94.6265 366.971 -5.10965 334.969 0.205087C302.968 5.51982 281.37 35.8251 267.913 38.4259C254.457 41.0268 244.958 31.5281 231.106 39.274C217.254 47.0765 81.3885 147.435 81.3885 147.435L668.158 148Z" fill="#5F755B"/>
<path d="M381.671 46.1719C372.342 47.6985 365.444 42.1575 358.32 37.3516C353.91 34.355 341.754 24.8564 336.666 25.3652C332.142 25.8176 331.747 31.5846 327.789 32.15C323.039 32.8285 320.891 27.2311 318.46 24.4606C310.544 30.3973 292.451 37.4648 285.723 27.2311C298.275 17.167 314.445 3.59744 334.913 0.205053C348.935 -2.11308 374.999 15.7535 401.46 36.6732C391.509 35.2032 390.378 44.7019 381.671 46.1719Z" fill="#87A381"/>
<path d="M257.058 49.5077C249.481 53.6917 248.746 52.9002 240.491 52.3913C225.339 51.4867 218.611 65.452 205.267 67.3743C201.649 67.8832 197.352 67.1481 194.129 65.0562C212.448 51.6562 226.809 41.366 230.823 39.0479C244.845 31.0192 254.457 40.8006 268.026 38.1433C269.383 37.8606 270.853 37.2951 272.436 36.5036C274.472 38.3129 275.885 40.4614 275.32 43.3449C268.592 44.6454 263.22 46.1153 257.058 49.5077Z" fill="#87A381"/>
<path d="M224.999 140.367C230.653 130.416 236.929 120.861 242.696 111.136C249.142 100.224 257.679 90.4425 262.485 78.5691C266.104 69.7489 268.592 61.6638 273.511 53.2394C277.808 45.8327 275.829 41.5921 273.567 36.447C279.73 33.507 287.363 26.6091 296.579 19.4851C296.635 19.8809 296.579 20.3332 296.409 20.8986L297.71 18.9762C298.614 27.6833 322.361 24.0649 310.205 37.9736C303.533 45.6065 292.96 49.96 295.109 62.4553C297.144 74.6114 305.512 78.7388 295.165 90.3294C287.759 98.5842 277.299 102.825 268.705 109.327C255.531 119.221 250.047 134.939 240.096 146.926H221.042C222.229 144.608 223.812 142.459 224.999 140.367Z" fill="#4B5B48"/>
<path d="M207.02 56.0098C213.748 62.003 194.016 70.0882 191.754 74.1025C183.895 87.9547 202.327 98.6408 208.942 107.065C216.179 116.281 213.183 126.684 203.571 132.056C198.256 135.052 194.581 134.713 192.546 140.989C191.811 143.194 191.471 145.116 191.019 146.869L82.6324 146.756C82.6889 146.756 163.71 86.8805 207.02 56.0098Z" fill="#4B5B48"/>
<path d="M519.232 133.809C511.769 123.688 504.532 120.917 493.733 115.546C489.662 113.511 483.047 109.779 481.407 105.312C479.372 99.715 483.273 98.8669 485.704 95.7007C504.08 96.2661 535.007 79.5869 551.234 74.8375C551.403 81.8485 541.283 90.4425 540.661 97.5099C539.53 110.401 556.775 120.239 563.899 129.116C567.517 133.639 573.002 141.215 569.27 146.982C569.044 147.321 568.818 147.604 568.535 147.887L534.442 147.83C528.109 145.569 524.321 140.763 519.232 133.809Z" fill="#4B5B48"/>
<path d="M621.513 147.943C610.035 141.215 592.621 128.833 593.073 117.638C593.526 106.217 613.428 111.306 613.258 102.372C629.202 109.836 667.536 148 667.536 148L621.513 147.943Z" fill="#6D8469"/>
<path d="M370.42 122.161C369.402 110.231 363.861 97.2838 372.512 86.4282C375.904 82.1877 381.954 78.2299 387.269 76.8729C392.074 75.6291 399.934 77.3253 403.326 73.311C409.941 65.565 403.156 54.5397 400.386 48.0377C398.463 43.4579 399.481 39.6698 401.969 36.8994C426.507 56.349 451.328 78.1734 467.159 88.6898C468.516 90.7817 469.364 92.9302 469.025 94.9091C467.725 102.429 457.039 99.8281 451.667 98.8104C444.148 97.4534 410.789 90.6121 416.33 106.613C419.27 115.207 430.748 127.589 437.25 133.865C440.642 137.144 448.501 141.328 448.388 147.095L377.261 147.039C369.741 140.989 371.211 131.377 370.42 122.161Z" fill="#6D8469"/>
<path d="M379.77 148C379.77 148 336.177 104.577 322.664 101.298C277.659 90.4425 262.958 73.8764 262.958 73.8764C248.258 76.4772 212.751 96.7184 192.849 95.7007C172.947 94.6265 78.5822 -5.10965 46.5807 0.205087C14.5792 5.51982 -7.01895 35.8251 -20.4754 38.4259C-33.9319 41.0268 -43.4305 31.5281 -57.2828 39.274C-71.135 47.0765 -207 147.435 -207 147.435L379.77 148Z" fill="#5F755B"/>
<path d="M93.2826 46.1719C83.9535 47.6985 77.0557 42.1575 69.9317 37.3516C65.5216 34.355 53.3655 24.8564 48.2769 25.3652C43.7538 25.8176 43.358 31.5846 39.4002 32.15C34.6509 32.8285 32.5024 27.2311 30.0712 24.4606C22.1556 30.3973 4.06287 37.4648 -2.66536 27.2311C9.88647 17.167 26.0568 3.59744 46.5242 0.205053C60.5461 -2.11308 86.6109 15.7535 113.071 36.6732C103.12 35.2032 101.99 44.7019 93.2826 46.1719Z" fill="#87A381"/>
<path d="M-63.3891 140.367C-57.7351 130.416 -51.4591 120.861 -45.6921 111.136C-39.2466 100.224 -30.7091 90.4425 -25.9032 78.5691C-22.2846 69.7489 -19.7969 61.6638 -14.8779 53.2394C-10.5809 45.8327 -12.5598 41.5921 -14.8214 36.447C-8.65858 33.507 -1.02574 26.6091 8.19024 19.4851C8.24678 19.8809 8.19028 20.3332 8.02066 20.8986L9.32104 18.9762C10.2257 27.6833 33.9724 24.0649 21.8163 37.9736C15.1446 45.6065 4.57171 49.96 6.72022 62.4553C8.75565 74.6114 17.1235 78.7388 6.77675 90.3294C-0.629957 98.5842 -11.0898 102.825 -19.6838 109.327C-32.8576 119.221 -38.342 134.939 -48.293 146.926H-67.3468C-66.1595 144.608 -64.5764 142.459 -63.3891 140.367Z" fill="#4B5B48"/>
<path d="M230.844 133.809C223.381 123.688 216.144 120.917 205.344 115.546C201.274 113.511 194.658 109.779 193.019 105.312C190.983 99.715 194.885 98.8669 197.316 95.7007C215.691 96.2661 246.618 79.5869 262.845 74.8375C263.015 81.8485 252.894 90.4425 252.272 97.5099C251.142 110.401 268.386 120.239 275.51 129.116C279.129 133.639 284.613 141.215 280.882 146.982C280.655 147.321 280.429 147.604 280.146 147.887L246.053 147.83C239.721 145.569 235.932 140.763 230.844 133.809Z" fill="#4B5B48"/>
<path d="M333.124 147.943C321.647 141.215 304.232 128.833 304.685 117.638C305.137 106.217 325.039 111.306 324.869 102.372C340.814 109.836 379.148 148 379.148 148L333.124 147.943Z" fill="#6D8469"/>
<path d="M82.0311 122.161C81.0134 110.231 75.4725 97.2838 84.1231 86.4282C87.5155 82.1877 93.5652 78.2299 98.88 76.8729C103.686 75.6291 111.545 77.3253 114.937 73.311C121.552 65.565 114.768 54.5397 111.997 48.0377C110.075 43.4579 111.093 39.6698 113.58 36.8994C138.119 56.349 162.94 78.1734 178.771 88.6898C180.128 90.7817 180.976 92.9302 180.636 94.9091C179.336 102.429 168.65 99.8281 163.279 98.8104C155.759 97.4534 122.401 90.6121 127.941 106.613C130.881 115.207 142.359 127.589 148.861 133.865C152.254 137.144 160.113 141.328 159.999 147.095L88.8725 147.039C81.3527 140.989 82.8227 131.377 82.0311 122.161Z" fill="#6D8469"/>
</g>
</svg>
