<svg width="210" height="135" viewBox="0 0 210 135" fill="none" xmlns="http://www.w3.org/2000/svg">
<path d="M152.072 74.7336C154.416 73.2384 157.319 72.9106 159.938 73.8456L188.323 83.9812C196.038 86.7363 196.359 97.5288 188.821 100.738L118.906 130.502C117.097 131.273 115.086 131.429 113.179 130.948L98.1139 127.148C90.4628 125.218 88.8227 115.077 95.4754 110.833L152.072 74.7336Z" fill="white" fill-opacity="0.5"/>
<path d="M15.4584 118.514C15.1538 117.999 15.0016 117.557 15.1539 117.042V116.968C15.1539 116.821 15.23 116.748 15.23 116.6C15.23 116.527 15.3061 116.527 15.3061 116.453C15.3823 116.38 15.3823 116.232 15.4584 116.159C15.5345 116.085 15.5346 116.011 15.6107 116.011C15.6868 115.938 15.763 115.864 15.8391 115.717C15.9153 115.643 15.9914 115.57 15.9914 115.57C16.0675 115.496 16.1437 115.423 16.296 115.349C16.3721 115.275 16.4483 115.202 16.5244 115.202C16.6005 115.128 16.7528 115.055 16.9051 114.981C16.9813 114.907 17.0574 114.907 17.1335 114.834C17.2858 114.76 17.4381 114.687 17.5904 114.613C17.6665 114.539 17.7427 114.539 17.8949 114.466C18.0472 114.392 18.2757 114.319 18.4279 114.245C18.5041 114.245 18.5802 114.171 18.7325 114.171H18.8086L18.1234 113.73C17.2858 113.288 17.4381 112.699 18.2757 112.405L18.6564 112.331C18.8086 112.258 19.1132 112.331 19.2655 112.405L21.169 113.509C25.8898 112.626 31.8288 113.288 35.0268 115.128C35.2552 115.275 35.4075 115.349 35.5598 115.496L35.6359 115.57C35.7882 115.717 35.9405 115.864 36.0166 116.011L36.0928 116.085C36.1689 116.232 36.3212 116.38 36.3973 116.6V116.674C36.4734 116.821 36.5496 117.042 36.6257 117.263C36.6257 117.336 36.6257 117.336 36.7019 117.41C36.778 117.631 36.778 117.778 36.8542 117.999V118.072C36.8542 118.293 36.9303 118.44 36.9303 118.661V118.735C36.9303 118.956 36.9303 119.177 36.9303 119.324C36.9303 119.397 36.9303 119.397 36.9303 119.471C36.9303 119.692 36.9303 119.913 36.9303 120.06C36.9303 120.281 36.8542 120.428 36.8542 120.649C36.8542 120.722 36.8542 120.722 36.8542 120.796C36.8542 120.943 36.778 121.09 36.778 121.237C36.5496 122.489 36.1689 123.446 36.1689 123.446C36.1689 123.446 20.636 122.121 17.1335 119.986C16.3721 119.618 15.8391 119.103 15.4584 118.514C15.4584 118.588 15.4584 118.588 15.4584 118.514Z" fill="white" fill-opacity="0.5"/>
<path d="M50.331 131.174C50.0265 130.806 49.8742 130.365 49.9503 129.997V129.923C49.9503 129.849 50.0265 129.702 50.0265 129.629C50.0265 129.555 50.1026 129.555 50.1026 129.481C50.1788 129.408 50.1788 129.334 50.2549 129.26C50.3311 129.187 50.3311 129.187 50.4072 129.113C50.4833 129.04 50.5595 128.966 50.6356 128.892C50.7118 128.819 50.7879 128.819 50.7879 128.745C50.864 128.672 51.0163 128.598 51.0924 128.524C51.1686 128.451 51.2448 128.451 51.3209 128.377C51.4732 128.304 51.5493 128.23 51.7016 128.156C51.7778 128.083 51.8539 128.083 52.0062 128.009C52.1584 127.936 52.3107 127.862 52.463 127.862C52.5392 127.788 52.6914 127.788 52.7676 127.715C52.9198 127.641 53.1483 127.568 53.3006 127.568C53.3767 127.568 53.4529 127.494 53.6052 127.494H53.6813L52.996 127.2C52.1584 126.832 52.2346 126.316 53.2244 126.169L53.6052 126.095C53.7574 126.022 54.062 126.095 54.2143 126.169L56.1939 127.052C61.067 126.316 67.1583 126.832 70.4324 128.377C70.6608 128.451 70.8131 128.598 70.9654 128.672L71.0415 128.745C71.1938 128.892 71.3461 128.966 71.4984 129.113L71.5745 129.187C71.6507 129.334 71.803 129.408 71.8791 129.555C71.8791 129.555 71.8791 129.555 71.8791 129.629C71.9552 129.776 72.0314 129.923 72.1075 130.07C72.1075 130.07 72.1075 130.144 72.1836 130.144C72.2598 130.291 72.2598 130.438 72.3359 130.585V130.659C72.3359 130.806 72.412 130.953 72.412 131.101V131.174C72.412 131.321 72.412 131.542 72.412 131.689V131.763C72.412 131.91 72.412 132.131 72.412 132.278C72.412 132.426 72.3359 132.573 72.3359 132.72V132.794C72.3359 132.941 72.2598 133.088 72.2598 133.162C72.0314 134.192 71.6506 134.928 71.6506 134.928C71.6506 134.928 55.7371 133.824 52.0823 132.205C51.2448 131.984 50.7117 131.542 50.331 131.174Z" fill="white" fill-opacity="0.5"/>
<path d="M167.284 87.011C173.376 89.0719 173.452 92.605 167.513 94.9604L99.5185 122.047C93.5794 124.403 83.8333 124.403 77.8943 122.047L-38.6021 75.8229C-44.5411 73.4676 -44.465 69.8609 -38.3737 67.8L23.91 46.6752C30.0013 44.6142 39.8997 44.6143 45.991 46.6016L167.284 87.011Z" fill="#9AAE49"/>
<path d="M-42.8662 51.6804V71.333L-38.2977 71.7011L88.7062 123.372L171.853 90.3969L171.7 70.8914L-42.8662 51.6804Z" fill="#9AAE49"/>
<path d="M167.284 66.4014C173.376 68.4624 173.452 71.9954 167.513 74.3508L99.5185 101.438C93.5795 103.793 83.8334 103.793 77.8943 101.438L-38.602 55.2134C-44.5411 52.858 -44.465 49.2514 -38.3737 47.1904L23.9101 26.0657C30.0014 24.0047 39.8998 24.0047 45.9911 25.9921L167.284 66.4014Z" fill="#EAE987"/>
<path d="M167.284 62.4268C173.376 64.4877 173.452 68.0208 167.513 70.3762L99.5185 97.463C93.5795 99.8183 83.8334 99.8183 77.8943 97.463L-38.602 51.2387C-44.5411 48.8834 -44.465 45.2767 -38.3737 43.2157L23.9101 22.1646C30.0014 20.1036 39.8998 20.1036 45.9911 22.0909L167.284 62.4268Z" fill="#9AAE49"/>
<path d="M-42.8662 27.0961V46.7488L-38.2977 47.1168L88.7063 98.7878L171.853 65.8126L171.7 46.3807L-42.8662 27.0961Z" fill="#9AAE49"/>
<path d="M167.284 41.8173C173.376 43.8782 173.452 47.4113 167.513 49.7666L99.5185 76.8534C93.5794 79.2088 83.8333 79.2088 77.8943 76.8534L-38.6021 30.6292C-44.5411 28.2738 -44.465 24.6672 -38.3737 22.6062L23.91 1.55505C30.0013 -0.505898 39.8997 -0.505925 45.991 1.48142L167.284 41.8173Z" fill="#EAE987"/>
<path d="M54.1383 131.101C54.9759 131.101 55.6611 130.438 55.6611 129.629V119.324C55.6611 118.514 54.9759 117.852 54.1383 117.852C53.3007 117.852 52.6155 118.514 52.6155 119.324V129.629C52.6155 130.438 53.3007 131.101 54.1383 131.101Z" fill="#AA664B"/>
<path d="M42.0318 111.374C42.0318 119.545 47.2855 126.169 53.6814 126.169C60.0773 126.169 65.3311 119.545 65.3311 111.374C65.3311 103.204 53.6814 88.115 53.6814 88.115C53.6814 88.115 42.0318 103.204 42.0318 111.374Z" fill="#9ECA53"/>
<path d="M44.7729 120.869C46.9048 124.108 50.1789 126.243 53.7576 126.243C60.2296 126.243 65.4072 119.618 65.4072 111.448C65.4072 106.443 60.991 98.7878 57.6408 93.7091C57.6408 93.7091 64.0366 115.202 56.0418 118.146C48.0469 121.017 42.8693 116.748 42.8693 116.748L44.7729 120.869Z" fill="#7AAD4A"/>
<path d="M18.9613 115.128C19.7989 115.128 20.4841 114.466 20.4841 113.656V103.351C20.4841 102.542 19.7989 101.879 18.9613 101.879C18.1237 101.879 17.4385 102.542 17.4385 103.351V113.656C17.4385 114.466 18.1237 115.128 18.9613 115.128Z" fill="#AA664B"/>
<path d="M6.93074 95.402C6.93074 103.572 12.1845 110.197 18.5804 110.197C25.0524 110.197 30.23 103.572 30.23 95.402C30.23 87.2318 18.5804 72.1427 18.5804 72.1427C18.5804 72.1427 6.93074 87.2318 6.93074 95.402Z" fill="#9ECA53"/>
<path d="M9.59575 104.897C11.7277 108.136 15.0018 110.27 18.5805 110.27C25.0525 110.27 30.2301 103.646 30.2301 95.4756C30.2301 90.4704 25.8139 82.8155 22.4637 77.7367C22.4637 77.7367 28.8596 99.2295 20.8647 102.174C12.8699 105.044 7.69221 100.775 7.69221 100.775L9.59575 104.897Z" fill="#7AAD4A"/>
</svg>
