<svg width="101" height="86" viewBox="0 0 101 86" fill="none" xmlns="http://www.w3.org/2000/svg">
<path d="M96.7526 66.6081L61.2 82.5411L1.37527 57.691L36.8712 44.1657L96.7526 66.6081Z" fill="#F58477"/>
<path d="M83.731 66.1162L65.4817 73.8399L20.857 55.3393L37.885 48.328L83.731 66.1162Z" fill="#F4938C"/>
<path d="M49.8538 69.9202L42.7368 73.119L25.5838 65.766L33.0646 62.8538L49.8538 69.9202Z" fill="#F4938C"/>
<path d="M27.0375 65.6767L32.931 63.283L49.1042 70.2731L49.8538 69.9202L33.0646 62.8538L25.5838 65.766L42.7368 73.119L43.299 72.8542L27.0375 65.6767Z" fill="#CC605A"/>
<path d="M96.5709 69.0746L61.0808 84.9782L1.31567 60.2221L1.37527 57.691L61.2 82.5411L96.7526 66.6081L96.5709 69.0746Z" fill="#CC605A"/>
<path d="M96.8448 65.3132L100.308 19.2225L40.8241 0.897012L37.7979 44.1566L96.8448 65.3132Z" fill="#2B3D66"/>
<path d="M40.8242 0.897021L38.7615 1.9294L98.3296 20.6275L95.406 66.0823L96.8449 65.3132L100.308 19.2225L40.8242 0.897021Z" fill="#4966A4"/>
<path d="M95.4061 66.0823L98.8264 20.5156L38.7615 1.9294L37.3349 44.1457L95.4061 66.0823Z" fill="#354870"/>
<path d="M95.6843 45.0874L97.3995 22.088L40.6399 4.7841L39.882 26.478L95.6843 45.0874Z" fill="#B2E26F"/>
<path d="M82.505 63.0915L43.1418 48.0503L45.5735 47.0884L84.844 62.1274L82.505 63.0915Z" fill="#2B3D66"/>
<path d="M82.639 66.5846L83.731 66.1162L38.742 48.6571L37.885 48.328L20.857 55.3393L65.4817 73.8399L66.3238 73.4891L22.5245 55.3477L37.9315 48.9777L82.639 66.5846Z" fill="#CC605A"/>
<path d="M39.882 26.478L95.6843 45.0874L94.317 63.8021L38.9963 43.1039L39.882 26.478Z" fill="#EFEFEF"/>
<path d="M87.4081 30.6239L50.7231 18.5798L50.7987 15.3696L87.6468 27.0469L87.4081 30.6239Z" fill="#F7787A"/>
<path d="M84.9993 34.5513L52.5141 23.8415L52.6507 20.6636L85.3292 31.0382L84.9993 34.5513Z" fill="#F7787A"/>
<path d="M80.156 36.9389L57.5293 29.8894L57.447 26.8299L80.1927 34.0675L80.156 36.9389Z" fill="#2B3D66"/>
<path d="M84.2486 21.8401L78.085 19.9654L78.2397 18.641L84.4018 20.5774L84.2486 21.8401Z" fill="#79AC4A"/>
<path d="M91.2391 24.0122L85.0446 22.1368L85.2 20.7815L91.3924 22.7496L91.2391 24.0122Z" fill="#79AC4A"/>
<path d="M96.1165 25.4242L92.0358 24.2781L92.0671 22.9508L96.2073 24.191L96.1165 25.4242Z" fill="#79AC4A"/>
<path d="M57.2349 42.3907L46.2034 38.7027L46.8997 31.4304L58.0812 35.3072L57.2349 42.3907Z" fill="#D8E6F1"/>
<path d="M71.4073 47.7894L60.3456 44.0699L61.1029 36.8299L72.3153 40.7074L71.4073 47.7894Z" fill="#D8E6F1"/>
<path d="M85.3883 52.1337L74.2957 48.4134L75.0839 41.1741L86.3573 45.084L85.3883 52.1337Z" fill="#D8E6F1"/>
</svg>
