<svg width="646" height="148" viewBox="0 0 646 148" fill="none" xmlns="http://www.w3.org/2000/svg">
<g opacity="0.1">
<path d="M0.233765 148C0.233765 148 43.8259 104.577 57.3389 101.298C102.345 90.4425 117.045 73.8764 117.045 73.8764C131.745 76.4772 167.252 96.7184 187.154 95.7007C207.056 94.6265 301.421 -5.10965 333.423 0.205087C365.424 5.51982 387.022 35.8251 400.479 38.4259C413.935 41.0268 423.434 31.5281 437.286 39.274C451.138 47.0765 587.003 147.435 587.003 147.435L0.233765 148Z" fill="#5F755B"/>
<path d="M286.721 46.1719C296.05 47.6985 302.948 42.1575 310.072 37.3516C314.482 34.355 326.638 24.8564 331.726 25.3652C336.25 25.8176 336.645 31.5846 340.603 32.15C345.352 32.8285 347.501 27.2311 349.932 24.4606C357.848 30.3973 375.94 37.4648 382.669 27.2311C370.117 17.167 353.946 3.59744 333.479 0.205053C319.457 -2.11308 293.392 15.7535 266.932 36.6732C276.883 35.2032 278.014 44.7019 286.721 46.1719Z" fill="#87A381"/>
<path d="M411.334 49.5077C418.911 53.6917 419.646 52.9002 427.901 52.3913C443.053 51.4867 449.781 65.452 463.125 67.3743C466.743 67.8832 471.04 67.1481 474.263 65.0562C455.944 51.6562 441.583 41.366 437.569 39.0479C423.547 31.0192 413.935 40.8006 400.366 38.1433C399.009 37.8606 397.539 37.2951 395.955 36.5036C393.92 38.3129 392.507 40.4614 393.072 43.3449C399.8 44.6454 405.172 46.1153 411.334 49.5077Z" fill="#87A381"/>
<path d="M443.392 140.367C437.738 130.416 431.462 120.861 425.695 111.136C419.25 100.224 410.712 90.4425 405.906 78.5691C402.288 69.7489 399.8 61.6638 394.881 53.2394C390.584 45.8327 392.563 41.5921 394.825 36.447C388.662 33.507 381.029 26.6091 371.813 19.4851C371.757 19.8809 371.813 20.3332 371.983 20.8986L370.682 18.9762C369.778 27.6833 346.031 24.0649 358.187 37.9736C364.859 45.6065 375.432 49.96 373.283 62.4553C371.248 74.6114 362.88 78.7388 373.227 90.3294C380.633 98.5842 391.093 102.825 399.687 109.327C412.861 119.221 418.345 134.939 428.296 146.926H447.35C446.163 144.608 444.58 142.459 443.392 140.367Z" fill="#4B5B48"/>
<path d="M461.372 56.0098C454.644 62.003 474.376 70.0882 476.638 74.1025C484.497 87.9547 466.065 98.6408 459.45 107.065C452.213 116.281 455.209 126.684 464.821 132.056C470.136 135.052 473.811 134.713 475.846 140.989C476.581 143.194 476.92 145.116 477.373 146.869L585.759 146.756C585.703 146.756 504.681 86.8805 461.372 56.0098Z" fill="#4B5B48"/>
<path d="M149.159 133.809C156.623 123.688 163.86 120.917 174.659 115.546C178.73 113.511 185.345 109.779 186.985 105.312C189.02 99.715 185.119 98.8669 182.688 95.7007C164.312 96.2661 133.385 79.5869 117.158 74.8375C116.988 81.8485 127.109 90.4425 127.731 97.5099C128.862 110.401 111.617 120.239 104.493 129.116C100.875 133.639 95.3902 141.215 99.1218 146.982C99.3479 147.321 99.5741 147.604 99.8568 147.887L133.95 147.83C140.283 145.569 144.071 140.763 149.159 133.809Z" fill="#4B5B48"/>
<path d="M46.8791 147.943C58.3566 141.215 75.7709 128.833 75.3186 117.638C74.8663 106.217 54.9643 111.306 55.1339 102.372C39.1897 109.836 0.855759 148 0.855759 148L46.8791 147.943Z" fill="#6D8469"/>
<path d="M297.972 122.161C298.99 110.231 304.531 97.2838 295.88 86.4282C292.488 82.1877 286.438 78.2299 281.123 76.8729C276.317 75.6291 268.458 77.3253 265.066 73.311C258.451 65.565 265.236 54.5397 268.006 48.0377C269.928 43.4579 268.911 39.6698 266.423 36.8994C241.885 56.349 217.064 78.1734 201.233 88.6898C199.876 90.7817 199.028 92.9302 199.367 94.9091C200.667 102.429 211.353 99.8281 216.724 98.8104C224.244 97.4534 257.603 90.6121 252.062 106.613C249.122 115.207 237.644 127.589 231.142 133.865C227.75 137.144 219.891 141.328 220.004 147.095L291.131 147.039C298.651 140.989 297.181 131.377 297.972 122.161Z" fill="#6D8469"/>
<path d="M288.622 148C288.622 148 332.214 104.577 345.727 101.298C390.733 90.4425 405.434 73.8764 405.434 73.8764C420.134 76.4772 455.641 96.7184 475.543 95.7007C495.445 94.6265 589.81 -5.10965 621.811 0.205087C653.813 5.51982 675.411 35.8251 688.867 38.4259C702.324 41.0268 711.822 31.5281 725.675 39.274C739.527 47.0765 875.392 147.435 875.392 147.435L288.622 148Z" fill="#5F755B"/>
<path d="M575.109 46.1719C584.438 47.6985 591.336 42.1575 598.46 37.3516C602.87 34.355 615.026 24.8564 620.115 25.3652C624.638 25.8176 625.034 31.5846 628.992 32.15C633.741 32.8285 635.889 27.2311 638.321 24.4606C646.236 30.3973 664.329 37.4648 671.057 27.2311C658.505 17.167 642.335 3.59744 621.868 0.205053C607.846 -2.11308 581.781 15.7535 555.32 36.6732C565.271 35.2032 566.402 44.7019 575.109 46.1719Z" fill="#87A381"/>
<path d="M731.781 140.367C726.127 130.416 719.851 120.861 714.084 111.136C707.638 100.224 699.101 90.4425 694.295 78.5691C690.676 69.7489 688.189 61.6638 683.27 53.2394C678.973 45.8327 680.952 41.5921 683.213 36.447C677.05 33.507 669.418 26.6091 660.202 19.4851C660.145 19.8809 660.202 20.3332 660.371 20.8986L659.071 18.9762C658.166 27.6833 634.419 24.0649 646.576 37.9736C653.247 45.6065 663.82 49.96 661.672 62.4553C659.636 74.6114 651.268 78.7388 661.615 90.3294C669.022 98.5842 679.482 102.825 688.076 109.327C701.249 119.221 706.734 134.939 716.685 146.926H735.739C734.551 144.608 732.968 142.459 731.781 140.367Z" fill="#4B5B48"/>
<path d="M437.548 133.809C445.011 123.688 452.248 120.917 463.047 115.546C467.118 113.511 473.733 109.779 475.373 105.312C477.409 99.715 473.507 98.8669 471.076 95.7007C452.701 96.2661 421.773 79.5869 405.547 74.8375C405.377 81.8485 415.498 90.4425 416.119 97.5099C417.25 110.401 400.006 120.239 392.882 129.116C389.263 133.639 383.779 141.215 387.51 146.982C387.737 147.321 387.963 147.604 388.245 147.887L422.339 147.83C428.671 145.569 432.459 140.763 437.548 133.809Z" fill="#4B5B48"/>
<path d="M335.268 147.943C346.745 141.215 364.159 128.833 363.707 117.638C363.255 106.217 343.353 111.306 343.522 102.372C327.578 109.836 289.244 148 289.244 148L335.268 147.943Z" fill="#6D8469"/>
<path d="M586.361 122.161C587.378 110.231 592.919 97.2838 584.269 86.4282C580.876 82.1877 574.827 78.2299 569.512 76.8729C564.706 75.6291 556.847 77.3253 553.455 73.311C546.839 65.565 553.624 54.5397 556.395 48.0377C558.317 43.4579 557.299 39.6698 554.812 36.8994C530.273 56.349 505.452 78.1734 489.621 88.6898C488.264 90.7817 487.416 92.9302 487.755 94.9091C489.056 102.429 499.742 99.8281 505.113 98.8104C512.633 97.4534 545.991 90.6121 540.45 106.613C537.51 115.207 526.033 127.589 519.531 133.865C516.138 137.144 508.279 141.328 508.392 147.095L579.519 147.039C587.039 140.989 585.569 131.377 586.361 122.161Z" fill="#6D8469"/>
</g>
</svg>
