<svg width="218" height="135" viewBox="0 0 218 135" fill="none" xmlns="http://www.w3.org/2000/svg">
<path d="M57.9285 74.7336C55.5843 73.2384 52.6806 72.9106 50.0621 73.8456L21.6773 83.9812C13.9618 86.7363 13.6405 97.5288 21.1785 100.738L91.094 130.502C92.903 131.273 94.9144 131.429 96.8208 130.948L111.886 127.148C119.537 125.218 121.177 115.077 114.525 110.833L57.9285 74.7336Z" fill="white" fill-opacity="0.5"/>
<path d="M194.542 118.514C194.846 117.999 194.998 117.557 194.846 117.042V116.968C194.846 116.821 194.77 116.748 194.77 116.6C194.77 116.527 194.694 116.527 194.694 116.453C194.618 116.38 194.618 116.232 194.542 116.159C194.465 116.085 194.465 116.011 194.389 116.011C194.313 115.938 194.237 115.864 194.161 115.717C194.085 115.643 194.009 115.57 194.009 115.57C193.932 115.496 193.856 115.423 193.704 115.349C193.628 115.275 193.552 115.202 193.476 115.202C193.399 115.128 193.247 115.055 193.095 114.981C193.019 114.907 192.943 114.907 192.866 114.834C192.714 114.76 192.562 114.687 192.41 114.613C192.333 114.539 192.257 114.539 192.105 114.466C191.953 114.392 191.724 114.319 191.572 114.245C191.496 114.245 191.42 114.171 191.268 114.171H191.191L191.877 113.73C192.714 113.288 192.562 112.699 191.724 112.405L191.344 112.331C191.191 112.258 190.887 112.331 190.735 112.405L188.831 113.509C184.11 112.626 178.171 113.288 174.973 115.128C174.745 115.275 174.593 115.349 174.44 115.496L174.364 115.57C174.212 115.717 174.06 115.864 173.983 116.011L173.907 116.085C173.831 116.232 173.679 116.38 173.603 116.6V116.674C173.527 116.821 173.45 117.042 173.374 117.263C173.374 117.336 173.374 117.336 173.298 117.41C173.222 117.631 173.222 117.778 173.146 117.999V118.072C173.146 118.293 173.07 118.44 173.07 118.661V118.735C173.07 118.956 173.07 119.177 173.07 119.324C173.07 119.397 173.07 119.397 173.07 119.471C173.07 119.692 173.07 119.913 173.07 120.06C173.07 120.281 173.146 120.428 173.146 120.649C173.146 120.722 173.146 120.722 173.146 120.796C173.146 120.943 173.222 121.09 173.222 121.237C173.45 122.489 173.831 123.446 173.831 123.446C173.831 123.446 189.364 122.121 192.866 119.986C193.628 119.618 194.161 119.103 194.542 118.514C194.542 118.588 194.542 118.588 194.542 118.514Z" fill="white" fill-opacity="0.5"/>
<path d="M159.669 131.174C159.974 130.806 160.126 130.365 160.05 129.997V129.923C160.05 129.849 159.974 129.702 159.974 129.629C159.974 129.555 159.897 129.555 159.897 129.481C159.821 129.408 159.821 129.334 159.745 129.26C159.669 129.187 159.669 129.187 159.593 129.113C159.517 129.04 159.441 128.966 159.364 128.892C159.288 128.819 159.212 128.819 159.212 128.745C159.136 128.672 158.984 128.598 158.908 128.524C158.831 128.451 158.755 128.451 158.679 128.377C158.527 128.304 158.451 128.23 158.298 128.156C158.222 128.083 158.146 128.083 157.994 128.009C157.842 127.936 157.689 127.862 157.537 127.862C157.461 127.788 157.309 127.788 157.232 127.715C157.08 127.641 156.852 127.568 156.699 127.568C156.623 127.568 156.547 127.494 156.395 127.494H156.319L157.004 127.2C157.842 126.832 157.765 126.316 156.776 126.169L156.395 126.095C156.243 126.022 155.938 126.095 155.786 126.169L153.806 127.052C148.933 126.316 142.842 126.832 139.568 128.377C139.339 128.451 139.187 128.598 139.035 128.672L138.958 128.745C138.806 128.892 138.654 128.966 138.502 129.113L138.425 129.187C138.349 129.334 138.197 129.408 138.121 129.555C138.121 129.555 138.121 129.555 138.121 129.629C138.045 129.776 137.969 129.923 137.892 130.07C137.892 130.07 137.893 130.144 137.816 130.144C137.74 130.291 137.74 130.438 137.664 130.585V130.659C137.664 130.806 137.588 130.953 137.588 131.101V131.174C137.588 131.321 137.588 131.542 137.588 131.689V131.763C137.588 131.91 137.588 132.131 137.588 132.278C137.588 132.426 137.664 132.573 137.664 132.72V132.794C137.664 132.941 137.74 133.088 137.74 133.162C137.969 134.192 138.349 134.928 138.349 134.928C138.349 134.928 154.263 133.824 157.918 132.205C158.755 131.984 159.288 131.542 159.669 131.174Z" fill="white" fill-opacity="0.5"/>
<path d="M232.613 105.265C232.917 104.75 233.069 104.308 232.917 103.793V103.719C232.917 103.572 232.841 103.499 232.841 103.351C232.841 103.278 232.765 103.278 232.765 103.204C232.689 103.131 232.689 102.983 232.613 102.91C232.536 102.836 232.536 102.763 232.46 102.763C232.384 102.689 232.308 102.615 232.232 102.468C232.156 102.395 232.08 102.321 232.08 102.321C232.003 102.247 231.927 102.174 231.775 102.1C231.699 102.026 231.623 101.953 231.547 101.953C231.471 101.879 231.318 101.806 231.166 101.732C231.09 101.658 231.014 101.658 230.938 101.585C230.785 101.511 230.633 101.438 230.481 101.364C230.405 101.29 230.328 101.29 230.176 101.217C230.024 101.143 229.795 101.07 229.643 100.996C229.567 100.996 229.491 100.922 229.339 100.922H229.262L229.948 100.481C230.785 100.039 230.633 99.4503 229.795 99.1559L229.415 99.0823C229.262 99.0087 228.958 99.0823 228.806 99.1559L226.902 100.26C222.181 99.3767 216.242 100.039 213.044 101.879C212.816 102.026 212.664 102.1 212.511 102.247L212.435 102.321C212.283 102.468 212.131 102.615 212.054 102.763L211.978 102.836C211.902 102.983 211.75 103.131 211.674 103.351V103.425C211.598 103.572 211.521 103.793 211.445 104.014C211.445 104.087 211.445 104.087 211.369 104.161C211.293 104.382 211.293 104.529 211.217 104.75V104.823C211.217 105.044 211.141 105.192 211.141 105.412V105.486C211.141 105.707 211.141 105.928 211.141 106.075C211.141 106.148 211.141 106.148 211.141 106.222C211.141 106.443 211.141 106.664 211.141 106.811C211.141 107.032 211.217 107.179 211.217 107.4C211.217 107.473 211.217 107.473 211.217 107.547C211.217 107.694 211.293 107.841 211.293 107.989C211.521 109.24 211.902 110.197 211.902 110.197C211.902 110.197 227.435 108.872 230.938 106.737C231.699 106.369 232.308 105.854 232.613 105.265C232.613 105.339 232.613 105.339 232.613 105.265Z" fill="white" fill-opacity="0.5"/>
<path d="M42.7157 87.011C36.6244 89.0719 36.5483 92.605 42.4873 94.9604L110.482 122.047C116.421 124.403 126.167 124.403 132.106 122.047L248.602 75.8229C254.541 73.4676 254.465 69.8609 248.374 67.8L186.09 46.6752C179.999 44.6142 170.1 44.6143 164.009 46.6016L42.7157 87.011Z" fill="#9AAE49"/>
<path d="M252.866 51.6804V71.333L248.298 71.7011L121.294 123.372L38.1474 90.3969L38.2997 70.8914L252.866 51.6804Z" fill="#9AAE49"/>
<path d="M42.7156 66.4014C36.6243 68.4624 36.5482 71.9954 42.4872 74.3508L110.482 101.438C116.421 103.793 126.167 103.793 132.106 101.438L248.602 55.2134C254.541 52.858 254.465 49.2514 248.374 47.1904L186.09 26.0657C179.999 24.0047 170.1 24.0047 164.009 25.9921L42.7156 66.4014Z" fill="#EAE987"/>
<path d="M42.7156 62.4268C36.6243 64.4877 36.5482 68.0208 42.4872 70.3762L110.482 97.463C116.421 99.8183 126.167 99.8183 132.106 97.463L248.602 51.2387C254.541 48.8834 254.465 45.2767 248.374 43.2157L186.09 22.1646C179.999 20.1036 170.1 20.1036 164.009 22.0909L42.7156 62.4268Z" fill="#9AAE49"/>
<path d="M252.866 27.0961V46.7488L248.298 47.1168L121.294 98.7878L38.1473 65.8126L38.2996 46.3807L252.866 27.0961Z" fill="#9AAE49"/>
<path d="M42.7156 41.8173C36.6243 43.8782 36.5482 47.4113 42.4872 49.7666L110.482 76.8534C116.421 79.2088 126.167 79.2088 132.106 76.8534L248.602 30.6292C254.541 28.2738 254.465 24.6672 248.374 22.6062L186.09 1.55505C179.999 -0.505898 170.1 -0.505925 164.009 1.48142L42.7156 41.8173Z" fill="#EAE987"/>
<path d="M155.862 131.101C155.024 131.101 154.339 130.438 154.339 129.629V119.324C154.339 118.514 155.024 117.852 155.862 117.852C156.699 117.852 157.385 118.514 157.385 119.324V129.629C157.385 130.438 156.699 131.101 155.862 131.101Z" fill="#AA664B"/>
<path d="M167.968 111.374C167.968 119.545 162.714 126.169 156.319 126.169C149.923 126.169 144.669 119.545 144.669 111.374C144.669 103.204 156.319 88.115 156.319 88.115C156.319 88.115 167.968 103.204 167.968 111.374Z" fill="#9ECA53"/>
<path d="M165.227 120.869C163.095 124.108 159.821 126.243 156.242 126.243C149.77 126.243 144.593 119.618 144.593 111.448C144.593 106.443 149.009 98.7878 152.359 93.7091C152.359 93.7091 145.963 115.202 153.958 118.146C161.953 121.017 167.131 116.748 167.131 116.748L165.227 120.869Z" fill="#7AAD4A"/>
<path d="M191.039 115.128C190.201 115.128 189.516 114.466 189.516 113.656V103.351C189.516 102.542 190.201 101.879 191.039 101.879C191.876 101.879 192.562 102.542 192.562 103.351V113.656C192.562 114.466 191.876 115.128 191.039 115.128Z" fill="#AA664B"/>
<path d="M203.069 95.402C203.069 103.572 197.815 110.197 191.42 110.197C184.948 110.197 179.77 103.572 179.77 95.402C179.77 87.2318 191.42 72.1427 191.42 72.1427C191.42 72.1427 203.069 87.2318 203.069 95.402Z" fill="#9ECA53"/>
<path d="M200.404 104.897C198.272 108.136 194.998 110.27 191.42 110.27C184.948 110.27 179.77 103.646 179.77 95.4756C179.77 90.4704 184.186 82.8155 187.536 77.7367C187.536 77.7367 181.14 99.2295 189.135 102.174C197.13 105.044 202.308 100.775 202.308 100.775L200.404 104.897Z" fill="#7AAD4A"/>
<path d="M240.759 82.0058C240.759 90.176 235.506 96.8005 229.11 96.8005C222.714 96.8005 217.46 90.176 217.46 82.0058C217.46 73.8356 229.11 58.7465 229.11 58.7465C229.11 58.7465 240.759 73.8356 240.759 82.0058Z" fill="#9ECA53"/>
<path d="M238.094 91.5009C235.962 94.7396 232.688 96.8741 229.11 96.8741C222.638 96.8741 217.46 90.2496 217.46 82.0794C217.46 77.0742 221.876 69.4193 225.226 64.3405C225.226 64.3405 218.831 85.8333 226.825 88.7775C234.82 91.6481 239.998 87.379 239.998 87.379L238.094 91.5009Z" fill="#7AAD4A"/>
</svg>
