<svg width="77" height="56" viewBox="0 0 77 56" fill="none" xmlns="http://www.w3.org/2000/svg">
<path d="M69.2386 41.8029C76.0323 39.1019 77.6158 35.269 72.6907 32.663C68.6009 30.5575 61.2023 29.836 54.0969 30.7054C53.8274 30.1615 53.3881 29.6306 52.8356 29.1083C48.7984 25.4659 38.591 23.7505 27.8958 24.5735C27.1602 24.6301 26.4245 24.6867 25.7455 24.7389C25.7455 24.7389 25.7455 24.7389 25.6889 24.7433C25.0099 24.7955 24.3369 24.928 23.6579 24.9802C23.5447 24.9889 23.4881 24.9933 23.375 25.002C22.7021 25.1345 22.0796 25.1824 21.4067 25.3148C21.2935 25.3235 21.1804 25.3322 21.1238 25.3366C20.4509 25.4691 19.778 25.6015 19.1051 25.7339C18.6586 25.849 18.2625 25.8795 17.8725 25.9902C17.0361 26.2159 16.25 26.357 15.5267 26.5741C14.4134 26.9017 13.3002 27.2294 12.3063 27.6286C11.6396 27.8413 10.9791 28.1341 10.3689 28.3424C10.0356 28.4488 9.76499 28.6309 9.48822 28.7329C8.88426 29.0214 8.3369 29.3055 7.84612 29.5853C7.35535 29.8651 6.86456 30.1449 6.37378 30.4247C5.0208 31.3355 4.00733 32.2203 3.33958 33.1591C3.23874 33.3282 3.13792 33.4973 3.03709 33.6664C1.87134 35.531 2.13879 37.5273 4.09155 39.2326C5.07101 40.1253 6.37767 40.8315 7.96726 41.5159C8.79035 41.856 9.60728 42.1158 10.5374 42.3669C11.1784 42.5596 11.8132 42.6721 12.4541 42.8648C17.5511 44.0054 23.9507 44.3197 30.5026 43.6542C30.5653 43.7301 30.5653 43.7301 30.6281 43.8059C30.873 44.0291 31.1744 44.248 31.6456 44.4537C31.9409 44.5923 32.23 44.6508 32.6385 44.7807C33.9143 45.0859 35.5173 45.2045 37.1079 45.1628C37.3343 45.1454 37.5606 45.128 37.787 45.1106C39.1451 45.0061 40.4908 44.7412 41.5979 44.3333C41.9879 44.2226 42.315 44.036 42.6484 43.9297C42.812 43.8365 42.919 43.7475 43.0888 43.7345C43.1454 43.7301 43.1957 43.6456 43.1957 43.6456C43.2462 43.561 43.3593 43.5523 43.4098 43.4678C43.4664 43.4634 43.5168 43.3789 43.5734 43.3745C43.6299 43.3702 43.6803 43.2856 43.7369 43.2812C46.0683 43.9892 48.8905 44.4175 51.9144 44.5075C52.1973 44.4857 52.4864 44.5442 52.7694 44.5224C53.6244 44.5373 54.536 44.5478 55.4414 44.4781C59.3583 44.3381 63.3514 43.7081 66.9174 42.7076C67.3074 42.5969 67.6973 42.4863 68.0811 42.2954C68.1377 42.291 68.1943 42.2866 68.3013 42.1977C68.5153 42.0199 68.8486 41.9136 69.2386 41.8029Z" fill="white" fill-opacity="0.5"/>
<path d="M19.7491 13.278L30.0077 14.3345L34.0014 13.1631L38.0879 15.5289L46.8663 18.0789L51.8992 25.7212L59.7434 31.4796L55.3747 40.5481L50.3849 42.5699L43.0999 41.5001L32.087 43.7281L26.9395 39.1112L15.0805 35.5753L12.0738 28.1546L11.9303 18.9781L19.7491 13.278Z" fill="#FFD522"/>
<path d="M11.9303 18.9781L19.1734 22.1501L24.8713 23.714L18.5393 29.4075L12.0738 28.1546L11.9303 18.9781Z" fill="#FFBB24"/>
<path d="M24.8713 23.714L30.6938 24.4827L39.1898 21.1893L38.0879 15.5289L46.8663 18.0789L46.82 24.9491L39.9421 28.9276L23.4243 32.6413L18.5393 29.4075L24.8713 23.714Z" fill="#FFA300"/>
<path opacity="0.7" d="M12.0738 28.1546L18.5393 29.4075L23.4243 32.6413L26.9395 39.1112L15.0805 35.5752L12.0738 28.1546Z" fill="#FFA300"/>
<path d="M38.0879 15.5289L39.1898 21.1893L30.6938 24.4827L24.8713 23.714L30.0077 14.3345L34.0015 13.1631L38.0879 15.5289Z" fill="#FFE161"/>
<path d="M46.8663 18.0789L51.8992 25.7212L51.4448 33.0547L46.82 24.9491L46.8663 18.0789Z" fill="#FFE161"/>
<path d="M39.9421 28.9276L40.5697 37.4611L26.9395 39.1112L23.4243 32.6413L39.9421 28.9276Z" fill="#FFE161"/>
<path d="M39.1898 21.1893L46.82 24.9491L39.9421 28.9276L30.6938 24.4828L39.1898 21.1893Z" fill="#FFBB24"/>
<path d="M40.5697 37.4611L50.3849 42.5699L43.0999 41.5L32.087 43.7281L26.9395 39.1112L40.5697 37.4611Z" fill="#FFBB24"/>
<path opacity="0.7" d="M51.4448 33.0547L55.3747 40.5481L50.3849 42.5699L40.5697 37.4611L51.4448 33.0547Z" fill="#FFA300"/>
</svg>
